<?xml version="1.0" encoding="utf-8"?>
<!-- Generator: Adobe Illustrator 24.3.0, SVG Export Plug-In . SVG Version: 6.00 Build 0)  -->
<svg version="1.1" id="Layer_1" xmlns="http://www.w3.org/2000/svg" xmlns:xlink="http://www.w3.org/1999/xlink" x="0px" y="0px"
	 viewBox="0 0 455.3 455.3" style="enable-background:new 0 0 455.3 455.3;" xml:space="preserve">
<style type="text/css">
	.st0{fill:#4D2A31;}
</style>
<g id="Hacker_anonymous">
	<g>
		<path class="st0" d="M447,384.9c-2.1-24.9-17.3-46.8-39.9-57.4l-39.9-18.8l21.6-44.6c11.9-24.6,11.9-53.3,0-78L331.4,67.7
			c-42-86.8-165.6-86.8-207.6,0L66.5,186.1c-11.9,24.6-11.9,53.3,0,78l21.6,44.6l-39.9,18.8C25.6,338.1,10.4,360,8.3,384.9
			l-3.6,43.4c-1,12.4,8.2,23.3,20.6,24.3c0.6,0.1,1.2,0.1,1.9,0.1h401.1c12.4,0,22.5-10.1,22.5-22.5c0-0.6,0-1.2-0.1-1.9L447,384.9z
			 M335.6,231.8c0,55.8-42.5,102.4-98.1,107.5v-26.5c0-5.5-4.4-9.9-9.9-9.9s-9.9,4.4-9.9,9.9v26.5c-55.6-5.1-98.1-51.7-98.1-107.5
			v-56.7c0-15.9,12.9-28.8,28.8-28.8c0,0,0,0,0,0h158.4c15.9,0,28.8,12.9,28.8,28.8c0,0,0,0,0,0V231.8z"/>
		<path class="st0" d="M293.5,247.6c-5.2-1.6-10.8,1.4-12.3,6.7c-2.1,7.2-9.7,11.3-16.9,9.1c-4.4-1.3-7.8-4.7-9.1-9.1
			c-1.6-5.2-7.1-8.2-12.3-6.7s-8.2,7.1-6.7,12.3c5.3,17.7,23.9,27.7,41.5,22.4c10.8-3.2,19.2-11.7,22.4-22.4
			C301.7,254.7,298.7,249.2,293.5,247.6z"/>
		<path class="st0" d="M212.5,247.6c-5.2-1.6-10.7,1.4-12.3,6.6c0,0,0,0,0,0c-2.1,7.2-9.7,11.3-16.9,9.1c-4.4-1.3-7.8-4.7-9.1-9.1
			c-1.6-5.2-7.1-8.2-12.3-6.7s-8.2,7.1-6.7,12.3c5.3,17.7,23.9,27.7,41.5,22.4c10.8-3.2,19.2-11.7,22.4-22.4
			C220.7,254.7,217.7,249.2,212.5,247.6z"/>
		<path class="st0" d="M290.6,199.1h-36c-5.5,0-9.9,4.4-9.9,9.9c0,5.5,4.4,9.9,9.9,9.9c0,0,0,0,0.1,0h36c5.5,0,9.9-4.4,9.9-9.9
			C300.6,203.5,296.2,199.1,290.6,199.1C290.7,199.1,290.7,199.1,290.6,199.1L290.6,199.1z"/>
		<path class="st0" d="M164.6,218.9h36c5.5,0,9.9-4.4,9.9-9.9c0-5.5-4.4-9.9-9.9-9.9c0,0,0,0-0.1,0h-36c-5.5,0-9.9,4.4-9.9,9.9
			C154.7,214.4,159.1,218.9,164.6,218.9C164.6,218.9,164.6,218.9,164.6,218.9z"/>
	</g>
</g>
</svg>
