<?xml version="1.0" encoding="utf-8"?>
<!-- Generator: Adobe Illustrator 24.3.0, SVG Export Plug-In . SVG Version: 6.00 Build 0)  -->
<svg version="1.1" id="Layer_1" xmlns="http://www.w3.org/2000/svg" xmlns:xlink="http://www.w3.org/1999/xlink" x="0px" y="0px"
	 viewBox="0 0 16.5 16.9" style="enable-background:new 0 0 16.5 16.9;" xml:space="preserve">
<style type="text/css">
	.st0{fill:#4466FB;}
	.st1{fill:#6BB5FB;}
	.st2{opacity:0.3;}
	.st3{fill:#384E85;}
</style>
<g>
	<g>
		<g>
			<circle class="st0" cx="8.3" cy="8.5" r="8.3"/>
			<path class="st1" d="M12.8,1.6c-0.2,0-0.2,0.1-0.2,0.6c-0.3-0.1-0.5,0.2-0.8,0c0,0,0,0-0.1,0c-0.3,0-0.3,0-0.2-0.3
				c0-0.1,0-0.1,0-0.2c0-0.1,0-0.1,0-0.2l0,0c0,0.2-0.2,0.4-0.1,0.6c0,0-0.1,0.1-0.1,0.1c-0.2,0-0.3,0.1-0.4,0.3c0,0,0,0-0.1,0
				c-0.1,0-0.3,0.1-0.3,0.3c0,0-0.1,0-0.1,0.1c-0.1,0-0.1,0.1-0.1,0.1c0,0-0.1,0-0.2,0.1c-0.1,0-0.1,0.1-0.2,0.1
				c0,0,0.1,0.1,0.1,0.1c0.1,0.1,0.2,0.1,0.3,0.2c0.1,0.1,0.1,0.4,0,0.4c-0.1,0-0.2,0-0.2,0c-0.1,0-0.3-0.1-0.4-0.1
				C9.6,3.8,9.5,3.9,9.5,4c0,0.1,0,0.2,0,0.3c-0.1,0.1,0,0.4,0.1,0.4C9.7,4.8,9.8,4.9,10,4.9c0.1,0,0.2,0,0.3-0.1
				c0.1-0.3,0.3-0.5,0.6-0.6c0,0,0.1,0,0.1,0c-0.1-0.1-0.1-0.1-0.1-0.2c0.1,0,0.1,0,0.2,0C11.1,4,11.2,4,11.3,3.8
				c0-0.1,0.1-0.1,0.2,0c0,0,0.1,0.1,0.1,0.1c0,0.2,0.2,0.3,0.3,0.4c0.1,0,0.1,0.1,0.2,0.2c0,0.1,0,0.2,0,0.2c0,0-0.1,0-0.2,0.1
				l-0.1,0c0,0,0,0,0,0c0,0,0.1,0.1,0.2,0.1c0.1,0,0.2-0.2,0.2-0.5c0.1,0,0.1,0,0.2,0.1c0,0,0,0,0,0c-0.1-0.1-0.2-0.2-0.3-0.3
				c-0.1-0.1-0.3-0.2-0.3-0.4c0-0.1-0.1-0.2,0-0.2c0.1,0,0.2,0,0.2,0.1c0,0.2,0.1,0.3,0.3,0.4c0.1,0,0.1,0.1,0.2,0.1
				c0,0,0.1,0.1,0.1,0.2c-0.1,0.1,0,0.2,0,0.3c0,0,0.1,0.1,0.1,0.1c0,0.1,0,0.1,0.1,0.2c0,0,0.1-0.1,0.1-0.1c0,0,0,0,0,0
				c0.1-0.1,0.1-0.1,0-0.2c-0.1,0-0.1-0.1-0.1-0.2c0.1-0.1,0.2-0.1,0.4-0.1c0.1,0,0.2,0,0.3,0c0,0,0-0.2,0-0.2c0-0.1,0-0.2,0-0.2
				c0-0.1,0.1-0.2,0.2-0.3c0.1-0.1,0.1-0.2,0.2-0.1c0.1,0,0.1,0.1,0.2,0.2c0,0,0.1,0.1,0.1,0.1c0.1,0,0.1,0,0.2-0.1c0,0,0,0,0,0
				c-0.1,0-0.2-0.1-0.2-0.1l0,0c0.2-0.1,0.4-0.1,0.6-0.2c0,0.1-0.1,0.2-0.1,0.2c-0.1,0.1-0.1,0.2,0,0.3c0.1,0.1,0.2,0.1,0.2,0.2
				c0,0.1,0.1,0.2,0,0.2c0,0-0.1,0.1-0.2,0.1c-0.1,0-0.2,0-0.3-0.1c-0.2-0.1-0.4-0.1-0.5,0c-0.1,0.1-0.3,0.1-0.4,0.2
				c0,0-0.1,0.1-0.1,0.1c0,0.1,0.1,0.3,0.1,0.4c0,0,0.2,0.1,0.2,0.1c0.1-0.1,0.1-0.1,0.2,0c0.1,0.1,0.2,0.1,0.3,0c0,0,0,0,0.1,0
				c0,0.1,0.1,0.2,0.1,0.3c0.1,0.1,0.1,0.2,0,0.2C14,5.6,14,5.7,14,5.8c0,0.1,0,0.2-0.1,0.1c-0.1,0-0.3-0.1-0.4,0
				c-0.3,0-0.6-0.1-0.9-0.2c-0.1,0-0.2-0.1-0.2,0c0,0-0.1,0.1,0,0.2c0,0.2,0,0.2-0.2,0.1c-0.2-0.1-0.3-0.2-0.5-0.3
				c-0.2-0.1-0.3-0.2-0.2-0.5c0-0.1,0-0.2-0.2-0.2c-0.1,0-0.2,0-0.2,0c-0.3-0.1-0.5-0.1-0.8,0.1c-0.1,0.1-0.3,0.2-0.5,0
				c0,0-0.1,0-0.1,0.1C9.6,5.2,9.6,5.3,9.5,5.4C9.4,5.5,9.4,5.6,9.4,5.7c0,0.2,0,0.3-0.2,0.4C9,6.3,8.8,6.5,8.7,6.8
				c0,0.1-0.1,0.1-0.1,0.2C8.5,7,8.5,7.2,8.6,7.3c0.1,0.2,0.1,0.4,0,0.6c0,0.1-0.1,0.3,0,0.4c0.1,0.2,0.2,0.4,0.3,0.7
				c0,0,0,0.1,0,0.1C9,9.1,9.1,9.3,9.3,9.4c0.1,0.1,0.2,0.2,0.4,0.1c0.1-0.1,0.3-0.1,0.5-0.1c0.1,0,0.1,0,0.2-0.1
				c0.1-0.1,0.3-0.1,0.4,0c0.1,0.1,0.1,0.2,0.3,0.1c0,0,0,0,0.1,0c0.1,0.1,0.2,0.3,0.1,0.5c-0.1,0.2-0.1,0.3,0,0.5
				c0.1,0.1,0.2,0.3,0.2,0.5c0,0.1,0,0.1,0.1,0.2c0.1,0.3,0.2,0.7,0,1c-0.1,0.2-0.2,0.5,0,0.7c0.1,0.3,0.2,0.5,0.2,0.8
				c0,0.2,0.1,0.4,0.1,0.6c0.1,0.2,0.2,0.4,0.1,0.7c0,0.2,0,0.2,0.2,0.2c0.2,0,0.4,0,0.6-0.1c0,0,0.1,0,0.1-0.1
				c0.3-0.3,0.6-0.6,0.6-1c0-0.1,0.1-0.2,0.2-0.2c0,0,0.1-0.1,0.1-0.1c0-0.1,0-0.2,0-0.4c0-0.1,0-0.2,0-0.2c0.1-0.1,0.2-0.2,0.3-0.3
				c0.3-0.2,0.4-0.7,0.3-1c-0.1-0.2-0.1-0.4-0.1-0.6c-0.1-0.3,0.1-0.5,0.3-0.7c0.2-0.1,0.3-0.3,0.4-0.5c0.2-0.3,0.4-0.6,0.5-0.9
				c0-0.1,0-0.2,0.1-0.3c-0.1,0-0.2,0-0.2,0c-0.2,0-0.3,0.1-0.5,0.1c0,0-0.1,0-0.1-0.1c-0.1-0.2-0.2-0.3-0.3-0.5c0,0,0-0.1-0.1-0.1
				c-0.1-0.1-0.1-0.3-0.2-0.4c-0.1-0.3-0.2-0.5-0.2-0.8c0-0.1-0.1-0.2-0.1-0.3c0-0.1-0.1-0.2-0.1-0.3c0.1,0,0.1,0,0.1,0
				C14,6.5,14.1,6.8,14.3,7c0,0,0,0.1,0,0.1c0,0.1,0,0.1,0.1,0.2c0.2,0.3,0.3,0.6,0.4,1c0,0.1,0.1,0.2,0.2,0.1
				c0.1,0,0.2-0.1,0.3-0.1c0.1-0.1,0.3-0.1,0.4-0.2C15.7,8.1,15.9,8,16,7.9c0.2-0.1,0.3-0.3,0.4-0.5c0-0.1,0-0.2-0.1-0.2
				c0-0.1-0.1-0.1-0.1-0.1c-0.1-0.1-0.2-0.1-0.3,0c-0.1,0.1-0.2,0.1-0.3,0c0,0,0,0-0.1,0c0,0-0.1-0.1-0.1-0.1c0.1-0.1,0-0.2-0.1-0.3
				c0,0-0.1-0.1-0.1-0.1c0,0,0-0.1,0-0.2c0,0,0.1,0,0.2,0c0.1,0,0.2,0.2,0.2,0.3c0.1,0.3,0.2,0.3,0.4,0.3c0,0,0.1,0,0.1,0
				c0.1,0.1,0.1,0.2,0.2,0.2C15.9,4.6,14.6,2.7,12.8,1.6z"/>
			<g>
				<path class="st1" d="M0.5,9.2c0.2,0,0.3,0.1,0.3,0.2c0,0,0.1,0.1,0.1,0.1c0,0,0.1,0,0.1,0c0.1,0.1,0.2,0.1,0.3,0.1
					c0-0.1,0.1-0.1,0.1-0.1C1.6,9.7,1.8,9.9,1.7,10c0,0.2-0.1,0.3-0.1,0.5c0,0.1,0,0.1,0.1,0.2c0,0,0,0.1,0,0.1c0,0.1,0,0.2,0.1,0.3
					c0.2,0.1,0.4,0.3,0.5,0.5c0.1,0.1,0.2,0.3,0.4,0.3c0.2,0,0.3,0.1,0.4,0.3c0.1,0.1,0.1,0.3,0.2,0.4c0.1,0.2,0.1,0.4,0.2,0.6
					c0.1,0.1,0.1,0.3,0.2,0.4C3.9,13.6,4,13.8,4.1,14c0,0,0.1,0.1,0.1,0.1c0,0,0,0,0,0.1c0,0.1,0.1,0.2,0.1,0.2c0,0.1,0.1,0.2,0,0.2
					c0.1,0,0.2,0.1,0.2,0.2c0,0,0,0,0,0c0.2,0.1,0.2,0.2,0.1,0.2c0.1,0.1,0.2,0.2,0.4,0.2c0.1,0.1,0.2,0.1,0.3,0.1
					c0.1,0,0.2,0,0.2-0.1c0,0,0,0,0.1-0.1c0,0,0.1,0,0.1-0.1c-0.1,0-0.1,0-0.2,0c0,0-0.1,0-0.1,0c-0.1-0.1-0.2-0.2-0.3-0.3
					c0,0,0,0,0-0.1c0-0.1,0-0.2,0.1-0.3c0-0.1,0-0.1-0.1-0.1c-0.1,0-0.2,0-0.3-0.1c0,0,0,0,0.1-0.1C5,14.2,5,14.1,4.9,14
					c0,0,0-0.1,0-0.1c0.1-0.1,0-0.2,0-0.2c0,0,0,0-0.1-0.1c0.2,0,0.3,0,0.3-0.2c0-0.1,0-0.2-0.2-0.3c0.1,0,0.2,0,0.4-0.1
					c-0.1-0.1-0.1-0.2,0-0.2c0,0,0-0.1,0-0.1c0.1-0.2,0-0.3-0.1-0.5c-0.1-0.1,0-0.2,0-0.2c0.1-0.1,0.2-0.1,0.3-0.2
					c0-0.1,0.1-0.1,0.1-0.2c0-0.1,0-0.2,0-0.2c0-0.1,0.1-0.2,0-0.3c-0.2-0.2-0.1-0.4,0-0.5c0,0,0-0.1,0.1-0.1c0-0.1,0-0.2-0.1-0.3
					C5.3,10,5.1,9.9,4.8,10c-0.1,0-0.3,0-0.4,0c-0.1,0-0.2-0.1-0.3,0c0-0.2-0.1-0.3-0.2-0.4c0,0-0.1-0.1-0.2,0
					C3.4,9.5,3.2,9.4,3,9.3c0,0,0,0,0,0C2.8,9.1,2.8,9.1,2.7,9.2c-0.1,0.1-0.3,0-0.4,0c-0.1,0-0.1,0-0.2,0c0,0.1,0,0.1,0,0.2
					c0,0,0,0,0,0c0,0-0.1,0-0.1,0c0-0.1,0-0.2-0.1-0.3C1.9,9.3,1.7,9.4,1.7,9.6c-0.2-0.1-0.2-0.1-0.4,0c-0.1,0-0.1,0-0.2,0
					C1,9.4,1,9.3,0.9,9.1c0-0.2-0.1-0.2-0.2-0.1c0,0,0,0-0.1,0c0,0-0.1,0-0.1,0c0,0,0-0.1,0-0.1c0-0.1,0-0.3,0-0.4
					c-0.2,0-0.2,0.1-0.3,0.2c0,0,0,0.1,0,0.1C0.2,8.8,0.1,8.8,0,8.8C0,8.9,0,9,0,9c0.1,0,0.2,0,0.3,0.1C0.3,9.2,0.4,9.2,0.5,9.2z"/>
			</g>
			<g class="st2">
				<path class="st3" d="M12.9,1.6C14.2,3.1,15,5,15,7.1c0,4.6-3.7,8.3-8.3,8.3c-1.7,0-3.3-0.5-4.6-1.4c1.5,1.7,3.7,2.7,6.1,2.7
					c4.6,0,8.3-3.7,8.3-8.3C16.5,5.6,15.1,3.1,12.9,1.6z"/>
			</g>
			<g>
				<path class="st1" d="M0.1,7.6c0.2-0.2,0.2-0.2,0.4-0.1c0,0,0.1,0,0.1,0c0.1,0,0.1,0,0.1,0.1c0,0,0,0.1,0,0.1
					c0,0.1,0.1,0.2,0.3,0.2C1,7.8,0.9,7.7,0.9,7.6c0,0,0-0.1,0-0.1C0.9,7.3,1,7.2,1.1,7c0.1-0.1,0.1-0.2,0.1-0.4c0,0,0-0.1-0.1-0.1
					c0,0,0.1-0.1,0.1-0.1c0.1-0.1,0.3-0.2,0.4-0.4C1.7,6,1.8,5.9,1.9,5.9C2,5.9,2,5.9,2,6c0,0,0.1,0,0.1,0c0.1-0.1,0.2-0.1,0.4-0.2
					c0.1,0,0.1-0.1,0-0.2c0,0,0,0-0.1,0C2.3,5.7,2.2,5.7,2.1,5.6c0,0,0-0.1,0-0.1c0-0.1-0.1-0.2-0.2-0.2c0,0,0,0,0,0
					c0.1,0,0.2,0,0.4,0c0.1,0,0.2,0,0.4,0c0,0,0-0.1,0-0.1c0.1,0,0.3,0,0.4-0.1c0,0,0.2-0.3,0.1-0.3c0.2,0,0.4,0,0.6-0.1
					c0.1,0,0.1,0,0.2-0.1c0,0,0-0.1,0-0.1c0-0.3,0-0.5,0.1-0.8C3.9,3.5,4,3.5,4,3.4c0.1-0.1,0.1-0.1,0.2-0.1c0.1,0,0.2,0,0.3-0.1
					C4.6,3.1,4.8,3,4.9,3c0.2-0.1,0.4-0.1,0.5-0.2c0,0,0.1,0,0.1-0.1c0-0.1,0.1-0.1,0.2-0.1c0-0.1,0-0.2,0-0.3c0,0,0.1-0.1,0.1-0.1
					C6,2.2,6.1,2.1,6.1,2c0-0.1,0-0.2,0.2-0.2C6.1,1.8,6.1,1.7,6,1.7c0.3-0.1,0.5-0.3,0.8-0.4C6.7,1.2,6.2,1.2,6,1.2
					c-0.1,0.1-0.1,0.1-0.2,0C6,1.2,6.1,1.1,6.2,1C6,1,5.8,0.9,5.6,0.8c0,0,0,0,0,0c-0.1,0-0.2,0-0.4,0C5.1,0.8,4.8,0.9,4.6,1.1
					C2.1,2.3,0.4,4.7,0.1,7.6C0,7.6,0,7.6,0.1,7.6L0.1,7.6L0.1,7.6z"/>
			</g>
		</g>
	</g>
	<g>
		<circle class="st3" cx="4.5" cy="13.3" r="0.5"/>
	</g>
</g>
</svg>
