<svg width="512" height="512" viewBox="0 0 512 512" fill="none" xmlns="http://www.w3.org/2000/svg">
<rect width="512" height="512" fill="#F22F46"/>
<path fill-rule="evenodd" clip-rule="evenodd" d="M78 256C78 157.693 157.693 78 256 78C318.624 78 373.694 110.34 405.422 159.229L308.111 258.07L308.04 258.142L307.97 258.215C304.089 262.216 297.541 261.758 294.255 257.255L267.118 220.064C243.834 188.155 197.25 185.34 170.294 214.213L84.9957 305.578C80.441 289.84 78 273.205 78 256ZM109.991 357.838C142.166 403.882 195.566 434 256 434C354.307 434 434 354.307 434 256C434 240.999 432.144 226.43 428.65 212.512L346.606 295.846C319.434 323.764 273.662 320.532 250.687 289.046L223.549 251.855C220.223 247.297 213.568 246.895 209.717 251.019L109.991 357.838Z" fill="white"/>
</svg>
